<svg width="25" height="25" viewBox="0 0 25 25" fill="none" xmlns="http://www.w3.org/2000/svg">
<g id="Group 12">
<path id="Ellipse 6" d="M23.9583 12.5C23.9583 18.8283 18.8283 23.9583 12.5 23.9583C6.17174 23.9583 1.04167 18.8283 1.04167 12.5C1.04167 6.17174 6.17174 1.04167 12.5 1.04167C18.8283 1.04167 23.9583 6.17174 23.9583 12.5Z" stroke="white" stroke-width="2.08333"/>
<path id="i" d="M11.2065 10.4106H13.9148V19.7508H11.2065V10.4106ZM12.5607 9.10848C12.063 9.10848 11.6579 8.9638 11.3454 8.67445C11.0329 8.3851 10.8766 8.0263 10.8766 7.59806C10.8766 7.16982 11.0329 6.81103 11.3454 6.52167C11.6579 6.23232 12.063 6.08765 12.5607 6.08765C13.0584 6.08765 13.4635 6.22654 13.776 6.50431C14.0885 6.78209 14.2447 7.12931 14.2447 7.54598C14.2447 7.99737 14.0885 8.37353 13.776 8.67445C13.4635 8.9638 13.0584 9.10848 12.5607 9.10848Z" fill="white"/>
</g>
</svg>
